<?xml version="1.0" standalone="no"?>
<!DOCTYPE svg PUBLIC "-//W3C//DTD SVG 20010904//EN"
 "http://www.w3.org/TR/2001/REC-SVG-20010904/DTD/svg10.dtd">
<svg version="1.0" xmlns="http://www.w3.org/2000/svg"
 width="700.000000pt" height="700.000000pt" viewBox="0 0 700.000000 700.000000"
 preserveAspectRatio="xMidYMid meet">
<metadata>
Created by potrace 1.11, written by Peter Selinger 2001-2013
</metadata>
<g transform="translate(0.000000,700.000000) scale(0.100000,-0.100000)"
fill="#000000" stroke="none">
<path d="M2110 6766 c-193 -75 -474 -229 -660 -360 -77 -54 -217 -161 -230
-176 -3 -3 -33 -29 -67 -58 -179 -153 -379 -376 -530 -592 -328 -469 -540
-1023 -599 -1565 -3 -33 -8 -73 -11 -90 -8 -52 -10 -477 -3 -560 10 -106 21
-205 26 -230 2 -11 7 -40 10 -65 3 -25 17 -94 30 -155 88 -411 263 -828 487
-1165 46 -69 184 -258 197 -270 3 -3 29 -34 59 -70 93 -112 310 -322 446 -431
384 -309 825 -530 1296 -650 68 -17 135 -33 149 -35 14 -3 48 -9 75 -14 188
-37 386 -54 625 -54 190 0 308 8 460 29 952 136 1798 663 2345 1462 28 40 55
81 60 91 6 9 23 40 40 67 109 183 178 330 178 380 0 75 -56 136 -132 141 -32
2 -99 -17 -176 -51 -137 -60 -484 -144 -700 -170 -218 -26 -626 -26 -749 0
-12 2 -43 7 -71 10 -41 5 -151 25 -272 51 -59 12 -272 77 -360 110 -537 200
-980 521 -1362 989 -101 124 -234 334 -325 513 -142 281 -240 571 -291 870 -8
48 -17 97 -19 109 -3 12 -7 54 -11 95 -3 40 -9 87 -11 103 -7 41 -7 397 0 465
13 122 17 156 21 180 2 14 7 45 10 70 27 211 118 522 229 778 20 46 36 96 36
112 0 100 -107 173 -200 136z m-236 -478 c-35 -98 -85 -310 -119 -498 -2 -13
-9 -68 -21 -160 -26 -212 -23 -562 7 -790 5 -41 12 -93 15 -115 3 -22 14 -82
25 -134 12 -51 22 -102 24 -112 8 -40 58 -218 82 -289 123 -368 326 -742 568
-1045 245 -308 551 -577 890 -785 378 -232 826 -396 1241 -455 60 -9 123 -18
139 -20 74 -11 222 -19 360 -19 154 0 401 11 413 18 4 2 36 7 70 10 35 3 67 8
70 10 4 2 30 7 57 10 28 4 57 9 65 11 8 2 26 6 40 9 14 2 72 16 130 30 57 13
106 24 107 22 3 -3 -126 -199 -135 -206 -4 -3 -26 -31 -50 -63 -285 -383 -773
-759 -1232 -950 -230 -96 -495 -176 -665 -201 -22 -4 -65 -11 -95 -16 -214
-38 -631 -46 -810 -16 -14 3 -47 7 -75 10 -261 27 -649 145 -935 285 -113 55
-112 55 -270 150 -340 206 -662 506 -898 838 -244 344 -420 740 -506 1143 -25
118 -30 148 -41 235 -4 28 -8 57 -10 65 -16 61 -23 381 -12 573 16 274 102
667 197 897 12 30 31 78 42 105 35 87 142 296 202 395 224 367 527 691 876
936 88 62 250 163 262 164 4 0 0 -19 -8 -42z"/>
<path d="M5945 5823 c-79 -21 -115 -111 -72 -177 24 -36 88 -43 369 -44 143
-1 262 -3 265 -5 8 -9 -123 -161 -487 -562 -102 -113 -175 -197 -184 -213 -41
-71 -16 -156 56 -191 43 -21 54 -21 526 -21 297 0 491 4 507 10 101 38 100
174 -1 216 -26 11 -105 14 -359 14 -179 0 -325 3 -325 8 0 4 24 32 53 63 28
30 104 113 167 185 63 71 117 131 120 134 3 3 43 48 90 100 47 52 104 115 127
140 23 25 52 59 64 75 13 17 27 32 31 35 14 11 38 80 38 110 0 49 -25 86 -72
106 -40 18 -77 19 -468 21 -234 0 -434 -1 -445 -4z"/>
<path d="M3130 5742 c-83 -13 -129 -128 -72 -184 31 -31 87 -37 370 -38 223 0
262 -2 255 -14 -17 -30 -140 -172 -239 -276 -29 -30 -62 -66 -74 -80 -12 -14
-38 -43 -58 -65 -20 -22 -75 -83 -122 -135 -47 -52 -87 -97 -90 -100 -3 -3
-27 -31 -54 -63 -37 -44 -49 -67 -53 -100 -6 -60 21 -106 77 -134 44 -23 47
-23 517 -23 413 0 478 2 513 16 48 19 70 55 70 114 0 50 -37 93 -91 107 -19 5
-176 9 -351 9 -337 -1 -335 -1 -281 45 10 9 33 33 52 55 40 45 193 216 201
224 3 3 59 66 125 140 66 74 125 140 130 146 71 76 122 142 133 172 29 83 -3
151 -83 174 -37 11 -809 19 -875 10z"/>
<path d="M4628 4798 c-63 -13 -100 -94 -65 -141 21 -29 64 -34 289 -33 120 1
218 -2 218 -5 0 -7 -38 -57 -72 -94 -15 -17 -36 -41 -48 -55 -12 -14 -43 -50
-70 -80 -184 -209 -305 -349 -325 -375 -49 -62 -37 -138 26 -171 46 -23 782
-23 828 0 34 18 41 27 47 63 7 37 -12 76 -47 97 -26 15 -59 17 -295 17 l-265
0 58 67 c32 36 65 74 73 82 8 9 47 52 85 95 39 43 75 83 80 89 6 6 44 49 85
96 41 47 90 101 108 120 62 65 84 135 57 177 -34 52 -63 56 -412 57 -177 1
-337 -2 -355 -6z"/>
</g>
</svg>
